<svg width="960" height="520" viewBox="0 0 960 520" fill="none" xmlns="http://www.w3.org/2000/svg">
  <rect width="960" height="520" rx="28" fill="#F5F7FA"/>
  <rect x="110" y="72" width="740" height="44" rx="14" fill="#111827"/>
  <circle cx="138" cy="94" r="6" fill="#EF4444"/>
  <circle cx="160" cy="94" r="6" fill="#F59E0B"/>
  <circle cx="182" cy="94" r="6" fill="#22C55E"/>
  <text x="686" y="100" fill="#E5E7EB" font-family="-apple-system, BlinkMacSystemFont, Segoe UI, sans-serif" font-size="16" font-weight="600">Cdx 92%</text>
  <rect x="560" y="128" width="328" height="278" rx="18" fill="white" stroke="#D9DEE8"/>
  <text x="612" y="166" fill="#111827" font-family="-apple-system, BlinkMacSystemFont, Segoe UI, sans-serif" font-size="17" font-weight="700">Codex Usage Meter</text>
  <line x1="612" y1="186" x2="860" y2="186" stroke="#EEF1F5"/>
  <text x="612" y="222" fill="#111827" font-family="-apple-system, BlinkMacSystemFont, Segoe UI, sans-serif" font-size="15" font-weight="700">5-hour window</text>
  <text x="752" y="222" fill="#111827" font-family="-apple-system, BlinkMacSystemFont, Segoe UI, sans-serif" font-size="13" font-weight="700">92% left</text>
  <text x="820" y="222" fill="#16A34A" font-family="-apple-system, BlinkMacSystemFont, Segoe UI, sans-serif" font-size="13" font-weight="700">plenty</text>
  <rect x="612" y="238" width="260" height="12" rx="6" fill="#E8ECF2"/>
  <rect x="612" y="238" width="239" height="12" rx="6" fill="#22C55E"/>
  <text x="612" y="273" fill="#6B7280" font-family="-apple-system, BlinkMacSystemFont, Segoe UI, sans-serif" font-size="13">Resets 4/25 20:50</text>
  <text x="612" y="316" fill="#111827" font-family="-apple-system, BlinkMacSystemFont, Segoe UI, sans-serif" font-size="15" font-weight="700">Weekly window</text>
  <text x="752" y="316" fill="#111827" font-family="-apple-system, BlinkMacSystemFont, Segoe UI, sans-serif" font-size="13" font-weight="700">58% left</text>
  <text x="820" y="316" fill="#2563EB" font-family="-apple-system, BlinkMacSystemFont, Segoe UI, sans-serif" font-size="13" font-weight="700">steady</text>
  <rect x="612" y="332" width="260" height="12" rx="6" fill="#E8ECF2"/>
  <rect x="612" y="332" width="151" height="12" rx="6" fill="#3B82F6"/>
  <text x="612" y="367" fill="#6B7280" font-family="-apple-system, BlinkMacSystemFont, Segoe UI, sans-serif" font-size="13">Resets 4/29 03:20</text>
  <line x1="612" y1="382" x2="872" y2="382" stroke="#EEF1F5"/>
  <text x="612" y="401" fill="#4B5563" font-family="-apple-system, BlinkMacSystemFont, Segoe UI, sans-serif" font-size="13">Last change: 5h -1% left, weekly -1% left</text>
  <rect x="140" y="166" width="360" height="176" rx="22" fill="white" stroke="#D9DEE8"/>
  <text x="172" y="214" fill="#111827" font-family="-apple-system, BlinkMacSystemFont, Segoe UI, sans-serif" font-size="34" font-weight="800">Codex usage,</text>
  <text x="172" y="254" fill="#111827" font-family="-apple-system, BlinkMacSystemFont, Segoe UI, sans-serif" font-size="34" font-weight="800">always visible.</text>
  <text x="172" y="294" fill="#4B5563" font-family="-apple-system, BlinkMacSystemFont, Segoe UI, sans-serif" font-size="17">Local-first macOS menu bar meter for</text>
  <text x="172" y="320" fill="#4B5563" font-family="-apple-system, BlinkMacSystemFont, Segoe UI, sans-serif" font-size="17">OpenAI Codex rate-limit snapshots.</text>
</svg>
